{
  "accessors": [
    {
      "bufferView": 2,
      "componentType": 5126,
      "count": 3273,
      "max": [
        22.26875114440918,
        23.87401008605957,
        7.432969093322754
      ],
      "min": [
        -21.37436294555664,
        0.0,
        -4.109299182891846
      ],
      "type": "VEC3"
    },
    {
      "bufferView": 2,
      "byteOffset": 39276,
      "componentType": 5126,
      "count": 3273,
      "max": [
        1.0,
        1.0,
        1.0
      ],
      "min": [
        -1.0,
        -1.0,
        -1.0
      ],
      "type": "VEC3"
    },
    {
      "bufferView": 3,
      "componentType": 5126,
      "count": 3273,
      "max": [
        1.0,
        1.0,
        1.0,
        1.0
      ],
      "min": [
        -1.0,
        -1.0,
        -1.0,
        1.0
      ],
      "type": "VEC4"
    },
    {
      "bufferView": 1,
      "componentType": 5126,
      "count": 3273,
      "max": [
        0.9912828207015991,
        0.9947978854179382
      ],
      "min": [
        0.010015338659286499,
        0.006414592266082764
      ],
      "type": "VEC2"
    },
    {
      "bufferView": 0,
      "componentType": 5125,
      "count": 5808,
      "type": "SCALAR"
    },
    {
      "bufferView": 2,
      "byteOffset": 78552,
      "componentType": 5126,
      "count": 216,
      "max": [
        22.016572952270508,
        22.406354904174805,
        1.9353808164596558
      ],
      "min": [
        -22.016572952270508,
        20.436826705932617,
        -6.713057041168213
      ],
      "type": "VEC3"
    },
    {
      "bufferView": 2,
      "byteOffset": 81144,
      "componentType": 5126,
      "count": 216,
      "max": [
        1.0,
        0.9998809099197388,
        1.0
      ],
      "min": [
        -1.0,
        -0.9998809099197388,
        -0.9896369576454163
      ],
      "type": "VEC3"
    },
    {
      "bufferView": 3,
      "byteOffset": 52368,
      "componentType": 5126,
      "count": 216,
      "max": [
        1.0,
        1.0,
        1.0,
        1.0
      ],
      "min": [
        -0.9999897480010986,
        -0.9896344542503357,
        -1.0,
        1.0
      ],
      "type": "VEC4"
    },
    {
      "bufferView": 1,
      "byteOffset": 26184,
      "componentType": 5126,
      "count": 216,
      "max": [
        0.5862579345703125,
        0.49835193157196045
      ],
      "min": [
        0.018350154161453247,
        0.006414592266082764
      ],
      "type": "VEC2"
    },
    {
      "bufferView": 0,
      "byteOffset": 23232,
      "componentType": 5125,
      "count": 348,
      "type": "SCALAR"
    }
  ],
  "asset": {
    "extras": {
      "author": "brian-aa (https://sketchfab.com/brian-aa)",
      "license": "CC-BY-4.0 (http://creativecommons.org/licenses/by/4.0/)",
      "source": "https://sketchfab.com/3d-models/sm-boombox-00a66884dacb498b85701acd1cc77c5e",
      "title": "SM_Boombox"
    },
    "generator": "Sketchfab-12.97.0",
    "version": "2.0"
  },
  "bufferViews": [
    {
      "buffer": 0,
      "byteLength": 24624,
      "name": "floatBufferViews",
      "target": 34963
    },
    {
      "buffer": 0,
      "byteLength": 27912,
      "byteOffset": 24624,
      "byteStride": 8,
      "name": "floatBufferViews",
      "target": 34962
    },
    {
      "buffer": 0,
      "byteLength": 83736,
      "byteOffset": 52536,
      "byteStride": 12,
      "name": "floatBufferViews",
      "target": 34962
    },
    {
      "buffer": 0,
      "byteLength": 55824,
      "byteOffset": 136272,
      "byteStride": 16,
      "name": "floatBufferViews",
      "target": 34962
    }
  ],
  "buffers": [
    {
      "byteLength": 192096,
      "uri": "scene.bin"
    }
  ],
  "images": [
    {
      "uri": "textures/M_Boombox_baseColor.png"
    },
    {
      "uri": "textures/M_Boombox_metallicRoughness.png"
    },
    {
      "uri": "textures/M_Boombox_normal.png"
    }
  ],
  "materials": [
    {
      "doubleSided": true,
      "name": "M_Boombox",
      "normalTexture": {
        "index": 2
      },
      "pbrMetallicRoughness": {
        "baseColorTexture": {
          "index": 0
        },
        "metallicRoughnessTexture": {
          "index": 1
        }
      }
    }
  ],
  "meshes": [
    {
      "name": "boomBox_GEO_M_Boombox_0",
      "primitives": [
        {
          "attributes": {
            "NORMAL": 1,
            "POSITION": 0,
            "TANGENT": 2,
            "TEXCOORD_0": 3
          },
          "indices": 4,
          "material": 0,
          "mode": 4
        }
      ]
    },
    {
      "name": "boomBoxHandle_GEO_M_Boombox_0",
      "primitives": [
        {
          "attributes": {
            "NORMAL": 6,
            "POSITION": 5,
            "TANGENT": 7,
            "TEXCOORD_0": 8
          },
          "indices": 9,
          "material": 0,
          "mode": 4
        }
      ]
    }
  ],
  "nodes": [
    {
      "children": [
        1
      ],
      "matrix": [
        1.0,
        0.0,
        0.0,
        0.0,
        0.0,
        2.220446049250313e-16,
        -1.0,
        0.0,
        0.0,
        1.0,
        2.220446049250313e-16,
        0.0,
        0.0,
        0.0,
        0.0,
        1.0
      ],
      "name": "Sketchfab_model"
    },
    {
      "children": [
        2
      ],
      "matrix": [
        0.009999999776482582,
        0.0,
        0.0,
        0.0,
        0.0,
        0.0,
        0.009999999776482582,
        0.0,
        0.0,
        -0.009999999776482582,
        0.0,
        0.0,
        0.0,
        0.0,
        0.0,
        1.0
      ],
      "name": "1283f9380b4c4369b0e582c09e2b245a.fbx"
    },
    {
      "children": [
        3
      ],
      "name": "RootNode"
    },
    {
      "children": [
        4,
        5
      ],
      "name": "boomBox_GEO"
    },
    {
      "mesh": 0,
      "name": "boomBox_GEO_M_Boombox_0"
    },
    {
      "children": [
        6
      ],
      "name": "boomBoxHandle_GEO"
    },
    {
      "mesh": 1,
      "name": "boomBoxHandle_GEO_M_Boombox_0"
    }
  ],
  "samplers": [
    {
      "magFilter": 9729,
      "minFilter": 9987,
      "wrapS": 10497,
      "wrapT": 10497
    }
  ],
  "scene": 0,
  "scenes": [
    {
      "name": "Sketchfab_Scene",
      "nodes": [
        0
      ]
    }
  ],
  "textures": [
    {
      "sampler": 0,
      "source": 0
    },
    {
      "sampler": 0,
      "source": 1
    },
    {
      "sampler": 0,
      "source": 2
    }
  ]
}
