{
  "accessors": [
    {
      "bufferView": 2,
      "componentType": 5126,
      "count": 3445,
      "max": [
        7.187439918518066,
        27.214372634887695,
        3.430310010910034
      ],
      "min": [
        -7.187439918518066,
        0.0,
        -3.430310010910034
      ],
      "type": "VEC3"
    },
    {
      "bufferView": 2,
      "byteOffset": 41340,
      "componentType": 5126,
      "count": 3445,
      "max": [
        1.0,
        0.9997808933258057,
        1.0
      ],
      "min": [
        -1.0,
        -1.0,
        -1.0
      ],
      "type": "VEC3"
    },
    {
      "bufferView": 3,
      "componentType": 5126,
      "count": 3445,
      "max": [
        1.0,
        1.0,
        0.9488889575004578,
        1.0
      ],
      "min": [
        -1.0,
        -0.8445907235145569,
        -1.0,
        -1.0
      ],
      "type": "VEC4"
    },
    {
      "bufferView": 1,
      "componentType": 5126,
      "count": 3445,
      "max": [
        0.9950799942016602,
        0.9924299716949463
      ],
      "min": [
        0.00506999995559454,
        0.004410000052303076
      ],
      "type": "VEC2"
    },
    {
      "bufferView": 0,
      "componentType": 5125,
      "count": 19074,
      "type": "SCALAR"
    }
  ],
  "asset": {
    "extras": {
      "author": "Alisha (https://sketchfab.com/AlishaBegum)",
      "license": "CC-BY-4.0 (http://creativecommons.org/licenses/by/4.0/)",
      "source": "https://sketchfab.com/3d-models/costa-coffee-bag-add6a0f04c9345e180c45b0fddc4a429",
      "title": "Costa coffee bag"
    },
    "generator": "Sketchfab-15.49.0",
    "version": "2.0"
  },
  "bufferViews": [
    {
      "buffer": 0,
      "byteLength": 76296,
      "name": "floatBufferViews",
      "target": 34963
    },
    {
      "buffer": 0,
      "byteLength": 27560,
      "byteOffset": 76296,
      "byteStride": 8,
      "name": "floatBufferViews",
      "target": 34962
    },
    {
      "buffer": 0,
      "byteLength": 82680,
      "byteOffset": 103856,
      "byteStride": 12,
      "name": "floatBufferViews",
      "target": 34962
    },
    {
      "buffer": 0,
      "byteLength": 55120,
      "byteOffset": 186536,
      "byteStride": 16,
      "name": "floatBufferViews",
      "target": 34962
    }
  ],
  "buffers": [
    {
      "byteLength": 241656,
      "uri": "scene.bin"
    }
  ],
  "images": [
    {
      "uri": "textures/Paper_baseColor.jpeg"
    },
    {
      "uri": "textures/Paper_metallicRoughness.png"
    },
    {
      "uri": "textures/Paper_normal.png"
    }
  ],
  "materials": [
    {
      "doubleSided": true,
      "name": "Paper",
      "normalTexture": {
        "index": 2
      },
      "pbrMetallicRoughness": {
        "baseColorTexture": {
          "index": 0
        },
        "metallicRoughnessTexture": {
          "index": 1
        }
      }
    }
  ],
  "meshes": [
    {
      "name": "defaultMaterial",
      "primitives": [
        {
          "attributes": {
            "NORMAL": 1,
            "POSITION": 0,
            "TANGENT": 2,
            "TEXCOORD_0": 3
          },
          "indices": 4,
          "material": 0,
          "mode": 4
        }
      ]
    }
  ],
  "nodes": [
    {
      "children": [
        1
      ],
      "matrix": [
        1.0,
        0.0,
        0.0,
        0.0,
        0.0,
        2.220446049250313e-16,
        -1.0,
        0.0,
        0.0,
        1.0,
        2.220446049250313e-16,
        0.0,
        0.0,
        0.0,
        0.0,
        1.0
      ],
      "name": "Sketchfab_model"
    },
    {
      "children": [
        2
      ],
      "matrix": [
        1.0,
        0.0,
        0.0,
        0.0,
        0.0,
        -4.371139006309477e-08,
        0.999999999999999,
        0.0,
        0.0,
        -0.999999999999999,
        -4.371139006309477e-08,
        0.0,
        0.0,
        0.0,
        0.0,
        1.0
      ],
      "name": "Collada visual scene group"
    },
    {
      "children": [
        3
      ],
      "name": "Coffee"
    },
    {
      "mesh": 0,
      "name": "defaultMaterial"
    }
  ],
  "samplers": [
    {
      "magFilter": 9729,
      "minFilter": 9987,
      "wrapS": 10497,
      "wrapT": 10497
    }
  ],
  "scene": 0,
  "scenes": [
    {
      "name": "Sketchfab_Scene",
      "nodes": [
        0
      ]
    }
  ],
  "textures": [
    {
      "sampler": 0,
      "source": 0
    },
    {
      "sampler": 0,
      "source": 1
    },
    {
      "sampler": 0,
      "source": 2
    }
  ]
}
