{
  "accessors": [
    {
      "bufferView": 2,
      "componentType": 5126,
      "count": 791,
      "max": [
        1.6487330198287964,
        0.7113010287284851,
        1.1090919971466064
      ],
      "min": [
        -1.648123025894165,
        -0.60487300157547,
        0.25237900018692017
      ],
      "type": "VEC3"
    },
    {
      "bufferView": 2,
      "byteOffset": 9492,
      "componentType": 5126,
      "count": 791,
      "max": [
        0.9999712109565735,
        0.9999953508377075,
        0.9993823766708374
      ],
      "min": [
        -0.9999712109565735,
        -0.9996101260185242,
        -1.0
      ],
      "type": "VEC3"
    },
    {
      "bufferView": 3,
      "componentType": 5126,
      "count": 791,
      "max": [
        0.9750394821166992,
        1.0,
        0.7524258494377136,
        1.0
      ],
      "min": [
        -1.0,
        -0.9999998211860657,
        -0.999995231628418,
        1.0
      ],
      "type": "VEC4"
    },
    {
      "bufferView": 1,
      "componentType": 5126,
      "count": 791,
      "max": [
        0.9383400082588196,
        0.9418709874153137
      ],
      "min": [
        0.0017890000017359853,
        0.001787999994121492
      ],
      "type": "VEC2"
    },
    {
      "bufferView": 0,
      "componentType": 5125,
      "count": 3708,
      "type": "SCALAR"
    },
    {
      "bufferView": 2,
      "byteOffset": 18984,
      "componentType": 5126,
      "count": 1351,
      "max": [
        1.573037028312683,
        0.6661840081214905,
        1.2127089500427246
      ],
      "min": [
        -1.5740870237350464,
        -0.7093610167503357,
        0.28954601287841797
      ],
      "type": "VEC3"
    },
    {
      "bufferView": 2,
      "byteOffset": 35196,
      "componentType": 5126,
      "count": 1351,
      "max": [
        0.9999416470527649,
        0.9999567866325378,
        0.9999875426292419
      ],
      "min": [
        -0.9999374747276306,
        -0.9997074604034424,
        -0.9999924898147583
      ],
      "type": "VEC3"
    },
    {
      "bufferView": 3,
      "byteOffset": 12656,
      "componentType": 5126,
      "count": 1351,
      "max": [
        1.0,
        0.999897301197052,
        0.9989542961120605,
        1.0
      ],
      "min": [
        -0.9676939845085144,
        -0.9999997615814209,
        -0.9999917149543762,
        1.0
      ],
      "type": "VEC4"
    },
    {
      "bufferView": 1,
      "byteOffset": 6328,
      "componentType": 5126,
      "count": 1351,
      "max": [
        0.9982060194015503,
        0.9931060075759888
      ],
      "min": [
        0.002019000006839633,
        0.0017900000093504786
      ],
      "type": "VEC2"
    },
    {
      "bufferView": 0,
      "byteOffset": 14832,
      "componentType": 5125,
      "count": 6300,
      "type": "SCALAR"
    },
    {
      "bufferView": 2,
      "byteOffset": 51408,
      "componentType": 5126,
      "count": 986,
      "max": [
        1.1968950033187866,
        0.5839419960975647,
        0.26518499851226807
      ],
      "min": [
        -1.213323950767517,
        -0.5020269751548767,
        0.007763000205159187
      ],
      "type": "VEC3"
    },
    {
      "bufferView": 2,
      "byteOffset": 63240,
      "componentType": 5126,
      "count": 986,
      "max": [
        0.9999448657035828,
        0.9999446272850037,
        0.4675939977169037
      ],
      "min": [
        -0.9997770190238953,
        -0.9979702234268188,
        -1.0
      ],
      "type": "VEC3"
    },
    {
      "bufferView": 3,
      "byteOffset": 34272,
      "componentType": 5126,
      "count": 986,
      "max": [
        0.9982810020446777,
        0.9999061822891235,
        0.9999423623085022,
        1.0
      ],
      "min": [
        -0.9999960660934448,
        -0.9999855756759644,
        -0.9999362826347351,
        1.0
      ],
      "type": "VEC4"
    },
    {
      "bufferView": 1,
      "byteOffset": 17136,
      "componentType": 5126,
      "count": 986,
      "max": [
        0.9949449896812439,
        0.15744200348854065
      ],
      "min": [
        0.002259999979287386,
        0.0017869999865069985
      ],
      "type": "VEC2"
    },
    {
      "bufferView": 0,
      "byteOffset": 40032,
      "componentType": 5125,
      "count": 3600,
      "type": "SCALAR"
    }
  ],
  "asset": {
    "extras": {
      "author": "Andante (https://sketchfab.com/AndanteOle)",
      "license": "CC-BY-4.0 (http://creativecommons.org/licenses/by/4.0/)",
      "source": "https://sketchfab.com/3d-models/low-poly-old-sofa-with-bake-normal-0dbc5483a7884e17bfc086886c676006",
      "title": "Low Poly Old Sofa with Bake Normal"
    },
    "generator": "Sketchfab-16.53.0",
    "version": "2.0"
  },
  "bufferViews": [
    {
      "buffer": 0,
      "byteLength": 54432,
      "name": "floatBufferViews",
      "target": 34963
    },
    {
      "buffer": 0,
      "byteLength": 25024,
      "byteOffset": 54432,
      "byteStride": 8,
      "name": "floatBufferViews",
      "target": 34962
    },
    {
      "buffer": 0,
      "byteLength": 75072,
      "byteOffset": 79456,
      "byteStride": 12,
      "name": "floatBufferViews",
      "target": 34962
    },
    {
      "buffer": 0,
      "byteLength": 50048,
      "byteOffset": 154528,
      "byteStride": 16,
      "name": "floatBufferViews",
      "target": 34962
    }
  ],
  "buffers": [
    {
      "byteLength": 204576,
      "uri": "scene.bin"
    }
  ],
  "images": [
    {
      "uri": "textures/Wooden_baseColor.jpeg"
    },
    {
      "uri": "textures/Wooden_metallicRoughness.png"
    },
    {
      "uri": "textures/Wooden_normal.png"
    },
    {
      "uri": "textures/Leather_baseColor.jpeg"
    },
    {
      "uri": "textures/Leather_metallicRoughness.png"
    },
    {
      "uri": "textures/Leather_normal.png"
    },
    {
      "uri": "textures/Fabric_baseColor.jpeg"
    },
    {
      "uri": "textures/Fabric_metallicRoughness.png"
    },
    {
      "uri": "textures/Fabric_normal.png"
    }
  ],
  "materials": [
    {
      "doubleSided": true,
      "name": "Wooden",
      "normalTexture": {
        "index": 2
      },
      "occlusionTexture": {
        "index": 1
      },
      "pbrMetallicRoughness": {
        "baseColorTexture": {
          "index": 0
        },
        "metallicRoughnessTexture": {
          "index": 1
        }
      }
    },
    {
      "doubleSided": true,
      "name": "Leather",
      "normalTexture": {
        "index": 5
      },
      "occlusionTexture": {
        "index": 4
      },
      "pbrMetallicRoughness": {
        "baseColorTexture": {
          "index": 3
        },
        "metallicRoughnessTexture": {
          "index": 4
        }
      }
    },
    {
      "doubleSided": true,
      "name": "Fabric",
      "normalTexture": {
        "index": 8
      },
      "occlusionTexture": {
        "index": 7
      },
      "pbrMetallicRoughness": {
        "baseColorTexture": {
          "index": 6
        },
        "metallicRoughnessTexture": {
          "index": 7
        }
      }
    }
  ],
  "meshes": [
    {
      "name": "defaultMaterial",
      "primitives": [
        {
          "attributes": {
            "NORMAL": 1,
            "POSITION": 0,
            "TANGENT": 2,
            "TEXCOORD_0": 3
          },
          "indices": 4,
          "material": 2,
          "mode": 4
        }
      ]
    },
    {
      "name": "defaultMaterial",
      "primitives": [
        {
          "attributes": {
            "NORMAL": 6,
            "POSITION": 5,
            "TANGENT": 7,
            "TEXCOORD_0": 8
          },
          "indices": 9,
          "material": 1,
          "mode": 4
        }
      ]
    },
    {
      "name": "defaultMaterial",
      "primitives": [
        {
          "attributes": {
            "NORMAL": 11,
            "POSITION": 10,
            "TANGENT": 12,
            "TEXCOORD_0": 13
          },
          "indices": 14,
          "material": 0,
          "mode": 4
        }
      ]
    }
  ],
  "nodes": [
    {
      "children": [
        1
      ],
      "matrix": [
        0.007503157947212458,
        0.0,
        0.0,
        0.0,
        0.0,
        1.666035742078899e-18,
        -0.007503157947212458,
        0.0,
        0.0,
        0.007503157947212458,
        1.666035742078899e-18,
        0.0,
        0.0,
        0.0,
        0.0,
        1.0
      ],
      "name": "Sketchfab_model"
    },
    {
      "children": [
        2,
        4,
        6
      ],
      "matrix": [
        1.0,
        0.0,
        0.0,
        0.0,
        0.0,
        -4.371139006309477e-08,
        0.999999999999999,
        0.0,
        0.0,
        -0.999999999999999,
        -4.371139006309477e-08,
        0.0,
        0.0,
        0.0,
        0.0,
        1.0
      ],
      "name": "Collada visual scene group"
    },
    {
      "children": [
        3
      ],
      "matrix": [
        100.0,
        0.0,
        0.0,
        0.0,
        0.0,
        -1.6e-05,
        -100.0,
        0.0,
        0.0,
        100.0,
        -1.6e-05,
        0.0,
        0.0,
        0.0,
        0.0,
        1.0
      ],
      "name": "Retopo_Sofa.008"
    },
    {
      "mesh": 0,
      "name": "defaultMaterial"
    },
    {
      "children": [
        5
      ],
      "matrix": [
        100.0,
        0.0,
        0.0,
        0.0,
        0.0,
        -1.6e-05,
        -100.0,
        0.0,
        0.0,
        100.0,
        -1.6e-05,
        0.0,
        0.0,
        0.0,
        0.0,
        1.0
      ],
      "name": "Retopo_Sofa.007"
    },
    {
      "mesh": 1,
      "name": "defaultMaterial"
    },
    {
      "children": [
        7
      ],
      "matrix": [
        100.0,
        0.0,
        0.0,
        0.0,
        0.0,
        -1.6e-05,
        -100.0,
        0.0,
        0.0,
        100.0,
        -1.6e-05,
        0.0,
        0.0,
        0.0,
        0.0,
        1.0
      ],
      "name": "Sofa.002"
    },
    {
      "mesh": 2,
      "name": "defaultMaterial"
    }
  ],
  "samplers": [
    {
      "magFilter": 9729,
      "minFilter": 9987,
      "wrapS": 10497,
      "wrapT": 10497
    }
  ],
  "scene": 0,
  "scenes": [
    {
      "name": "Sketchfab_Scene",
      "nodes": [
        0
      ]
    }
  ],
  "textures": [
    {
      "sampler": 0,
      "source": 0
    },
    {
      "sampler": 0,
      "source": 1
    },
    {
      "sampler": 0,
      "source": 2
    },
    {
      "sampler": 0,
      "source": 3
    },
    {
      "sampler": 0,
      "source": 4
    },
    {
      "sampler": 0,
      "source": 5
    },
    {
      "sampler": 0,
      "source": 6
    },
    {
      "sampler": 0,
      "source": 7
    },
    {
      "sampler": 0,
      "source": 8
    }
  ]
}
