{
  "accessors": [
    {
      "bufferView": 2,
      "componentType": 5126,
      "count": 2565,
      "max": [
        23.23910903930664,
        50.72906494140625,
        16.031702041625977
      ],
      "min": [
        -21.25951385498047,
        -0.08677828311920166,
        -15.95258617401123
      ],
      "type": "VEC3"
    },
    {
      "bufferView": 2,
      "byteOffset": 30780,
      "componentType": 5126,
      "count": 2565,
      "max": [
        0.9999518394470215,
        0.9980050325393677,
        0.9999505877494812
      ],
      "min": [
        -0.9999518394470215,
        -0.9999995827674866,
        -0.9999874234199524
      ],
      "type": "VEC3"
    },
    {
      "bufferView": 3,
      "componentType": 5126,
      "count": 2565,
      "max": [
        1.0,
        0.9941484928131104,
        0.9990466237068176,
        1.0
      ],
      "min": [
        -1.0,
        -0.9928098320960999,
        -0.9976670742034912,
        1.0
      ],
      "type": "VEC4"
    },
    {
      "bufferView": 1,
      "componentType": 5126,
      "count": 2565,
      "max": [
        0.9922352433204651,
        1.0
      ],
      "min": [
        0.0,
        3.1585367324003452e-15
      ],
      "type": "VEC2"
    },
    {
      "bufferView": 0,
      "componentType": 5125,
      "count": 13728,
      "type": "SCALAR"
    }
  ],
  "asset": {
    "extras": {
      "author": "Clockwork Creations (https://sketchfab.com/clockworkcreations)",
      "license": "CC-BY-4.0 (http://creativecommons.org/licenses/by/4.0/)",
      "source": "https://sketchfab.com/3d-models/burlap-sack-e3b01fcc08e745758e65b1a997d52bf2",
      "title": "Burlap Sack"
    },
    "generator": "Sketchfab-16.15.0",
    "version": "2.0"
  },
  "bufferViews": [
    {
      "buffer": 0,
      "byteLength": 54912,
      "name": "floatBufferViews",
      "target": 34963
    },
    {
      "buffer": 0,
      "byteLength": 20520,
      "byteOffset": 54912,
      "byteStride": 8,
      "name": "floatBufferViews",
      "target": 34962
    },
    {
      "buffer": 0,
      "byteLength": 61560,
      "byteOffset": 75432,
      "byteStride": 12,
      "name": "floatBufferViews",
      "target": 34962
    },
    {
      "buffer": 0,
      "byteLength": 41040,
      "byteOffset": 136992,
      "byteStride": 16,
      "name": "floatBufferViews",
      "target": 34962
    }
  ],
  "buffers": [
    {
      "byteLength": 178032,
      "uri": "scene.bin"
    }
  ],
  "images": [
    {
      "uri": "textures/Closed_Burlap_Sack_baseColor.png"
    },
    {
      "uri": "textures/Closed_Burlap_Sack_metallicRoughness.png"
    },
    {
      "uri": "textures/Closed_Burlap_Sack_normal.png"
    }
  ],
  "materials": [
    {
      "doubleSided": true,
      "name": "Closed_Burlap_Sack",
      "normalTexture": {
        "index": 2
      },
      "pbrMetallicRoughness": {
        "baseColorTexture": {
          "index": 0
        },
        "metallicFactor": 0.0,
        "metallicRoughnessTexture": {
          "index": 1
        }
      }
    }
  ],
  "meshes": [
    {
      "name": "Closed_Burlap_Sack1_Closed_Burlap_Sack_0",
      "primitives": [
        {
          "attributes": {
            "NORMAL": 1,
            "POSITION": 0,
            "TANGENT": 2,
            "TEXCOORD_0": 3
          },
          "indices": 4,
          "material": 0,
          "mode": 4
        }
      ]
    }
  ],
  "nodes": [
    {
      "children": [
        1
      ],
      "matrix": [
        1.0,
        0.0,
        0.0,
        0.0,
        0.0,
        2.220446049250313e-16,
        -1.0,
        0.0,
        0.0,
        1.0,
        2.220446049250313e-16,
        0.0,
        0.0,
        0.0,
        0.0,
        1.0
      ],
      "name": "Sketchfab_model"
    },
    {
      "children": [
        2
      ],
      "matrix": [
        1.0,
        0.0,
        0.0,
        0.0,
        0.0,
        0.0,
        1.0,
        0.0,
        0.0,
        -1.0,
        0.0,
        0.0,
        0.0,
        0.0,
        0.0,
        1.0
      ],
      "name": "Closed_Burlap_Sack_FBX.fbx"
    },
    {
      "children": [
        3
      ],
      "name": "RootNode"
    },
    {
      "children": [
        4
      ],
      "matrix": [
        0.009999999776482582,
        0.0,
        0.0,
        0.0,
        0.0,
        0.009999999776482582,
        0.0,
        0.0,
        0.0,
        0.0,
        0.009999999776482582,
        0.0,
        -1.1102230246251565e-16,
        0.0,
        0.0,
        1.0
      ],
      "name": "Closed_Burlap_Sack1"
    },
    {
      "mesh": 0,
      "name": "Closed_Burlap_Sack1_Closed_Burlap_Sack_0"
    }
  ],
  "samplers": [
    {
      "magFilter": 9729,
      "minFilter": 9987,
      "wrapS": 10497,
      "wrapT": 10497
    }
  ],
  "scene": 0,
  "scenes": [
    {
      "name": "Sketchfab_Scene",
      "nodes": [
        0
      ]
    }
  ],
  "textures": [
    {
      "sampler": 0,
      "source": 0
    },
    {
      "sampler": 0,
      "source": 1
    },
    {
      "sampler": 0,
      "source": 2
    }
  ]
}
