# Blender 5.0.0
# www.blender.org
mtllib lid.mtl
o untitled_1
v -0.735251 0.712803 -0.895906
v -0.819525 0.712803 -0.819525
v -0.958934 0.700925 -0.786977
v -1.031454 0.700925 -0.689195
v -1.094040 0.700925 -0.584777
v -1.070760 0.712803 -0.443524
v -1.109077 0.712803 -0.336435
v -1.153402 0.712803 -0.113600
v -1.158983 0.712803 -0.000000
v 0.000000 0.567042 -1.301115
v -0.127532 0.567042 -1.294850
v -0.253835 0.567042 -1.276115
v -0.377694 0.567042 -1.245090
v -0.497915 0.567042 -1.202074
v -0.613341 0.567042 -1.147481
v -0.722861 0.567042 -1.081838
v -0.825419 0.567042 -1.005776
v -0.920027 0.567042 -0.920027
v -1.005776 0.567042 -0.825419
v -1.081838 0.567042 -0.722861
v -1.147481 0.567042 -0.613341
v -1.202074 0.567042 -0.497915
v -1.245090 0.567042 -0.377694
v -1.276115 0.567042 -0.253835
v -1.294850 0.567042 -0.127532
v -1.301115 0.567042 -0.000000
v -1.294850 0.567042 0.127532
v -1.276115 0.567042 0.253835
v -1.245090 0.567042 0.377694
v -1.202074 0.567042 0.497915
v -1.147481 0.567042 0.613341
v -1.081838 0.567042 0.722861
v -1.005776 0.567042 0.825419
v -0.920027 0.567042 0.920027
v -0.825419 0.567042 1.005776
v -0.722861 0.567042 1.081838
v -0.613341 0.567042 1.147481
v -0.497915 0.567042 1.202074
v -0.377694 0.567042 1.245090
v -0.253835 0.567042 1.276115
v -0.127532 0.567042 1.294850
v 0.000000 0.567042 1.301115
v 0.127532 0.567042 1.294850
v 0.253835 0.567042 1.276115
v 0.377694 0.567042 1.245090
v 0.497915 0.567042 1.202074
v 0.613341 0.567042 1.147481
v 0.722861 0.567042 1.081838
v 0.825419 0.567042 1.005776
v 0.920027 0.567042 0.920027
v 1.005776 0.567042 0.825419
v 1.081838 0.567042 0.722861
v 1.147481 0.567042 0.613341
v 1.202074 0.567042 0.497915
v 1.245090 0.567042 0.377694
v 1.276115 0.567042 0.253835
v 1.294850 0.567042 0.127532
v 1.301115 0.567042 -0.000000
v 1.294850 0.567042 -0.127532
v 1.276115 0.567042 -0.253835
v 1.245090 0.567042 -0.377694
v 1.202074 0.567042 -0.497915
v 1.147481 0.567042 -0.613341
v 1.081838 0.567042 -0.722861
v 1.005776 0.567042 -0.825419
v 0.920027 0.567042 -0.920027
v 0.825419 0.567042 -1.005776
v 0.722861 0.567042 -1.081838
v 0.613341 0.567042 -1.147481
v 0.497915 0.567042 -1.202074
v 0.377694 0.567042 -1.245090
v 0.253835 0.567042 -1.276115
v 0.127532 0.567042 -1.294850
v 0.000000 0.817712 -1.228150
v -0.120380 0.817712 -1.222236
v -0.239600 0.817712 -1.204551
v -0.356513 0.817712 -1.175266
v -0.469993 0.817712 -1.134663
v -0.578946 0.817712 -1.083132
v -0.682324 0.817712 -1.021169
v -0.779130 0.817712 -0.949373
v -0.868433 0.817712 -0.868433
v -0.949373 0.817712 -0.779130
v -1.021169 0.817712 -0.682324
v -1.083132 0.817712 -0.578946
v -1.134663 0.817712 -0.469993
v -1.175266 0.817712 -0.356513
v -1.204551 0.817712 -0.239600
v -1.222236 0.817712 -0.120380
v -1.228150 0.817712 -0.000000
v -1.222236 0.817712 0.120380
v -1.204551 0.817712 0.239600
v -1.175266 0.817712 0.356513
v -1.134663 0.817712 0.469993
v -1.083132 0.817712 0.578946
v -1.021169 0.817712 0.682324
v -0.949373 0.817712 0.779130
v -0.868433 0.817712 0.868433
v -0.779130 0.817712 0.949373
v -0.682324 0.817712 1.021169
v -0.578946 0.817712 1.083132
v -0.469993 0.817712 1.134663
v -0.356513 0.817712 1.175266
v -0.239600 0.817712 1.204551
v -0.120380 0.817712 1.222236
v 0.000000 0.817712 1.228150
v 0.120380 0.817712 1.222236
v 0.239600 0.817712 1.204551
v 0.356513 0.817712 1.175266
v 0.469993 0.817712 1.134663
v 0.578946 0.817712 1.083132
v 0.682324 0.817712 1.021169
v 0.779130 0.817712 0.949373
v 0.868433 0.817712 0.868433
v 0.949373 0.817712 0.779130
v 1.021169 0.817712 0.682324
v 1.083132 0.817712 0.578946
v 1.134663 0.817712 0.469993
v 1.175266 0.817712 0.356513
v 1.204551 0.817712 0.239600
v 1.222236 0.817712 0.120380
v 1.228150 0.817712 -0.000000
v 1.222236 0.817712 -0.120380
v 1.204551 0.817712 -0.239600
v 1.175266 0.817712 -0.356513
v 1.134663 0.817712 -0.469993
v 1.083132 0.817712 -0.578946
v 1.021169 0.817712 -0.682324
v 0.949373 0.817712 -0.779130
v 0.868433 0.817712 -0.868433
v 0.779130 0.817712 -0.949373
v 0.682324 0.817712 -1.021169
v 0.578946 0.817712 -1.083132
v 0.469993 0.817712 -1.134663
v 0.356513 0.817712 -1.175266
v 0.239600 0.817712 -1.204551
v 0.120380 0.817712 -1.222236
v 0.000000 0.817712 -1.063070
v -0.104199 0.817712 -1.057951
v -0.207395 0.817712 -1.042644
v -0.308593 0.817712 -1.017295
v -0.406819 0.817712 -0.982149
v -0.501128 0.817712 -0.937544
v -0.590610 0.817712 -0.883911
v -0.674405 0.817712 -0.821764
v -0.751704 0.817712 -0.751704
v -0.821764 0.817712 -0.674405
v -0.883911 0.817712 -0.590610
v -0.937544 0.817712 -0.501128
v -0.982149 0.817712 -0.406819
v -1.017295 0.817712 -0.308593
v -1.042644 0.817712 -0.207395
v -1.057951 0.817712 -0.104199
v -1.063070 0.817712 -0.000000
v -1.057951 0.817712 0.104199
v -1.042644 0.817712 0.207395
v -1.017295 0.817712 0.308593
v -0.982149 0.817712 0.406819
v -0.937544 0.817712 0.501128
v -0.883911 0.817712 0.590610
v -0.821764 0.817712 0.674405
v -0.751704 0.817712 0.751704
v -0.674405 0.817712 0.821764
v -0.590610 0.817712 0.883911
v -0.501128 0.817712 0.937544
v -0.406819 0.817712 0.982149
v -0.308593 0.817712 1.017295
v -0.207395 0.817712 1.042644
v -0.104199 0.817712 1.057951
v 0.000000 0.817712 1.063070
v 0.104199 0.817712 1.057951
v 0.207395 0.817712 1.042644
v 0.308593 0.817712 1.017295
v 0.406819 0.817712 0.982149
v 0.501128 0.817712 0.937544
v 0.590610 0.817712 0.883911
v 0.674405 0.817712 0.821764
v 0.751704 0.817712 0.751704
v 0.821764 0.817712 0.674405
v 0.883911 0.817712 0.590610
v 0.937544 0.817712 0.501128
v 0.982149 0.817712 0.406819
v 1.017295 0.817712 0.308593
v 1.042644 0.817712 0.207395
v 1.057951 0.817712 0.104199
v 1.063070 0.817712 -0.000000
v 1.057951 0.817712 -0.104199
v 1.042644 0.817712 -0.207395
v 1.017295 0.817712 -0.308593
v 0.982149 0.817712 -0.406819
v 0.937544 0.817712 -0.501128
v 0.883911 0.817712 -0.590610
v 0.821764 0.817712 -0.674405
v 0.751704 0.817712 -0.751704
v 0.674405 0.817712 -0.821764
v 0.590610 0.817712 -0.883911
v 0.501128 0.817712 -0.937544
v 0.406819 0.817712 -0.982149
v 0.308593 0.817712 -1.017295
v 0.207395 0.817712 -1.042644
v 0.104199 0.817712 -1.057951
v 0.000000 1.047637 -0.990482
v -0.097084 1.047637 -0.985713
v -0.193233 1.047637 -0.971450
v -0.287522 1.047637 -0.947832
v -0.379041 1.047637 -0.915086
v -0.466910 1.047637 -0.873527
v -0.550282 1.047637 -0.823556
v -0.628355 1.047637 -0.765653
v -0.700377 1.047637 -0.700377
v -0.765653 1.047637 -0.628355
v -0.823556 1.047637 -0.550282
v -0.873527 1.047637 -0.466910
v -0.915086 1.047637 -0.379041
v -0.947832 1.047637 -0.287522
v -0.971450 1.047637 -0.193234
v -0.985713 1.047637 -0.097084
v -0.990482 1.047637 -0.000000
v -0.985713 1.047637 0.097084
v -0.971450 1.047637 0.193233
v -0.947832 1.047637 0.287522
v -0.915086 1.047637 0.379041
v -0.873527 1.047637 0.466910
v -0.823556 1.047637 0.550282
v -0.765653 1.047637 0.628355
v -0.700377 1.047637 0.700377
v -0.628355 1.047637 0.765653
v -0.550282 1.047637 0.823556
v -0.466910 1.047637 0.873527
v -0.379041 1.047637 0.915086
v -0.287522 1.047637 0.947832
v -0.193233 1.047637 0.971450
v -0.097084 1.047637 0.985713
v 0.000000 1.047637 0.990482
v 0.097084 1.047637 0.985713
v 0.193234 1.047637 0.971450
v 0.287522 1.047637 0.947832
v 0.379041 1.047637 0.915086
v 0.466910 1.047637 0.873527
v 0.550282 1.047637 0.823556
v 0.628355 1.047637 0.765653
v 0.700377 1.047637 0.700377
v 0.765653 1.047637 0.628355
v 0.823556 1.047637 0.550282
v 0.873527 1.047637 0.466910
v 0.915086 1.047637 0.379041
v 0.947832 1.047637 0.287522
v 0.971450 1.047637 0.193233
v 0.985713 1.047637 0.097084
v 0.990482 1.047637 -0.000000
v 0.985713 1.047637 -0.097084
v 0.971450 1.047637 -0.193234
v 0.947832 1.047637 -0.287522
v 0.915086 1.047637 -0.379041
v 0.873527 1.047637 -0.466910
v 0.823556 1.047637 -0.550282
v 0.765653 1.047637 -0.628355
v 0.700377 1.047637 -0.700377
v 0.628355 1.047637 -0.765653
v 0.550282 1.047637 -0.823556
v 0.466910 1.047637 -0.873527
v 0.379041 1.047637 -0.915086
v 0.287522 1.047637 -0.947832
v 0.193234 1.047637 -0.971450
v 0.097084 1.047637 -0.985713
v 0.000000 1.068451 -0.964901
v -0.094577 1.068451 -0.960254
v -0.188243 1.068451 -0.946360
v -0.280096 1.068451 -0.923352
v -0.369251 1.068451 -0.891452
v -0.454851 1.068451 -0.850966
v -0.536070 1.068451 -0.802285
v -0.612126 1.068451 -0.745878
v -0.682288 1.068451 -0.682288
v -0.745878 1.068451 -0.612126
v -0.802285 1.068451 -0.536070
v -0.850966 1.068451 -0.454851
v -0.891452 1.068451 -0.369251
v -0.923352 1.068451 -0.280096
v -0.946360 1.068451 -0.188243
v -0.960254 1.068451 -0.094577
v -0.964901 1.068451 -0.000000
v -0.960254 1.068451 0.094577
v -0.946360 1.068451 0.188243
v -0.923352 1.068451 0.280096
v -0.891452 1.068451 0.369251
v -0.850966 1.068451 0.454851
v -0.802285 1.068451 0.536070
v -0.745878 1.068451 0.612126
v -0.682288 1.068451 0.682288
v -0.612126 1.068451 0.745878
v -0.536070 1.068451 0.802285
v -0.454851 1.068451 0.850966
v -0.369251 1.068451 0.891452
v -0.280096 1.068451 0.923352
v -0.188243 1.068451 0.946360
v -0.094577 1.068451 0.960254
v 0.000000 1.068451 0.964901
v 0.094577 1.068451 0.960254
v 0.188243 1.068451 0.946360
v 0.280096 1.068451 0.923352
v 0.369251 1.068451 0.891452
v 0.454851 1.068451 0.850966
v 0.536070 1.068451 0.802285
v 0.612126 1.068451 0.745878
v 0.682288 1.068451 0.682288
v 0.745878 1.068451 0.612126
v 0.802285 1.068451 0.536070
v 0.850966 1.068451 0.454851
v 0.891452 1.068451 0.369251
v 0.923352 1.068451 0.280096
v 0.946360 1.068451 0.188243
v 0.960254 1.068451 0.094577
v 0.964901 1.068451 -0.000000
v 0.960254 1.068451 -0.094577
v 0.946360 1.068451 -0.188243
v 0.923352 1.068451 -0.280096
v 0.891452 1.068451 -0.369251
v 0.850966 1.068451 -0.454851
v 0.802285 1.068451 -0.536070
v 0.745878 1.068451 -0.612126
v 0.682288 1.068451 -0.682288
v 0.612126 1.068451 -0.745878
v 0.536070 1.068451 -0.802285
v 0.454851 1.068451 -0.850966
v 0.369251 1.068451 -0.891452
v 0.280096 1.068451 -0.923352
v 0.188243 1.068451 -0.946360
v 0.094577 1.068451 -0.960254
v 0.000000 1.068451 -0.797073
v -0.078127 1.068451 -0.793235
v -0.155501 1.068451 -0.781757
v -0.231378 1.068451 -0.762751
v -0.305027 1.068451 -0.736399
v -0.375737 1.068451 -0.702955
v -0.442830 1.068451 -0.662742
v -0.505658 1.068451 -0.616145
v -0.563616 1.068451 -0.563616
v -0.616145 1.068451 -0.505658
v -0.662742 1.068451 -0.442830
v -0.702955 1.068451 -0.375737
v -0.736399 1.068451 -0.305027
v -0.762751 1.068451 -0.231378
v -0.781757 1.068451 -0.155501
v -0.793235 1.068451 -0.078127
v -0.797073 1.068451 -0.000000
v -0.793235 1.068451 0.078127
v -0.781757 1.068451 0.155501
v -0.762751 1.068451 0.231378
v -0.736399 1.068451 0.305027
v -0.702955 1.068451 0.375737
v -0.662742 1.068451 0.442830
v -0.616145 1.068451 0.505658
v -0.563616 1.068451 0.563616
v -0.505658 1.068451 0.616145
v -0.442830 1.068451 0.662742
v -0.375737 1.068451 0.702955
v -0.305027 1.068451 0.736399
v -0.231378 1.068451 0.762751
v -0.155501 1.068451 0.781757
v -0.078127 1.068451 0.793235
v 0.000000 1.068451 0.797073
v 0.078127 1.068451 0.793235
v 0.155501 1.068451 0.781757
v 0.231378 1.068451 0.762751
v 0.305027 1.068451 0.736399
v 0.375737 1.068451 0.702955
v 0.442830 1.068451 0.662742
v 0.505658 1.068451 0.616145
v 0.563616 1.068451 0.563616
v 0.616145 1.068451 0.505658
v 0.662742 1.068451 0.442830
v 0.702955 1.068451 0.375737
v 0.736399 1.068451 0.305027
v 0.762751 1.068451 0.231378
v 0.781757 1.068451 0.155501
v 0.793235 1.068451 0.078127
v 0.797073 1.068451 -0.000000
v 0.793235 1.068451 -0.078127
v 0.781757 1.068451 -0.155501
v 0.762751 1.068451 -0.231378
v 0.736399 1.068451 -0.305027
v 0.702955 1.068451 -0.375737
v 0.662742 1.068451 -0.442830
v 0.616145 1.068451 -0.505658
v 0.563616 1.068451 -0.563616
v 0.505658 1.068451 -0.616145
v 0.442830 1.068451 -0.662742
v 0.375737 1.068451 -0.702955
v 0.305027 1.068451 -0.736399
v 0.231378 1.068451 -0.762751
v 0.155501 1.068451 -0.781757
v 0.078127 1.068451 -0.793235
v 0.000000 1.049568 -0.797073
v -0.078127 1.049568 -0.793235
v -0.155501 1.049568 -0.781757
v -0.231378 1.049568 -0.762751
v -0.305027 1.049568 -0.736399
v -0.375737 1.049568 -0.702955
v -0.442830 1.049568 -0.662742
v -0.505658 1.049568 -0.616145
v -0.563616 1.049568 -0.563616
v -0.616145 1.049568 -0.505658
v -0.662742 1.049568 -0.442830
v -0.702955 1.049568 -0.375737
v -0.736399 1.049568 -0.305027
v -0.762751 1.049568 -0.231378
v -0.781757 1.049568 -0.155501
v -0.793235 1.049568 -0.078127
v -0.797073 1.049568 -0.000000
v -0.793235 1.049568 0.078127
v -0.781757 1.049568 0.155501
v -0.762751 1.049568 0.231378
v -0.736399 1.049568 0.305027
v -0.702955 1.049568 0.375737
v -0.662742 1.049568 0.442830
v -0.616145 1.049568 0.505658
v -0.563616 1.049568 0.563616
v -0.505658 1.049568 0.616145
v -0.442830 1.049568 0.662742
v -0.375737 1.049568 0.702955
v -0.305027 1.049568 0.736399
v -0.231378 1.049568 0.762751
v -0.155501 1.049568 0.781757
v -0.078127 1.049568 0.793235
v 0.000000 1.049568 0.797073
v 0.078127 1.049568 0.793235
v 0.155501 1.049568 0.781757
v 0.231378 1.049568 0.762751
v 0.305027 1.049568 0.736399
v 0.375737 1.049568 0.702955
v 0.442830 1.049568 0.662742
v 0.505658 1.049568 0.616145
v 0.563616 1.049568 0.563616
v 0.616145 1.049568 0.505658
v 0.662742 1.049568 0.442830
v 0.702955 1.049568 0.375737
v 0.736399 1.049568 0.305027
v 0.762751 1.049568 0.231378
v 0.781757 1.049568 0.155501
v 0.793235 1.049568 0.078127
v 0.797073 1.049568 -0.000000
v 0.793235 1.049568 -0.078127
v 0.781757 1.049568 -0.155501
v 0.762751 1.049568 -0.231378
v 0.736399 1.049568 -0.305027
v 0.702955 1.049568 -0.375737
v 0.662742 1.049568 -0.442830
v 0.616145 1.049568 -0.505658
v 0.563616 1.049568 -0.563616
v 0.505658 1.049568 -0.616145
v 0.442830 1.049568 -0.662742
v 0.375737 1.049568 -0.702955
v 0.305027 1.049568 -0.736399
v 0.231378 1.049568 -0.762751
v 0.155501 1.049568 -0.781757
v 0.078127 1.049568 -0.793235
v -0.918056 0.700925 -0.832078
vn 0.7422 0.2795 0.6091
vn 0.7983 0.2795 0.5334
vn -0.9555 0.2795 -0.0941
vn -0.9602 0.2795 -0.0000
vn 0.8468 0.2795 0.4526
vn -0.9555 0.2795 0.0941
vn 0.8871 0.2795 0.3674
vn -0.9417 0.2795 0.1873
vn 0.9188 0.2795 0.2787
vn -0.9188 0.2795 0.2787
vn 0.9417 0.2795 0.1873
vn -0.8871 0.2795 0.3674
vn 0.9555 0.2795 0.0941
vn -0.8468 0.2795 0.4526
vn 0.9602 0.2795 -0.0000
vn -0.7983 0.2795 0.5334
vn 0.9555 0.2795 -0.0941
vn -0.7422 0.2795 0.6091
vn 0.9417 0.2795 -0.1873
vn -0.6789 0.2795 0.6789
vn 0.9188 0.2795 -0.2787
vn -0.6091 0.2795 0.7422
vn 0.8871 0.2795 -0.3674
vn -0.5334 0.2795 0.7983
vn 0.8468 0.2795 -0.4526
vn -0.4526 0.2795 0.8468
vn -0.0941 0.2795 -0.9555
vn -0.0000 0.2795 -0.9602
vn 0.7983 0.2795 -0.5334
vn -0.3674 0.2795 0.8871
vn -0.1873 0.2795 -0.9417
vn 0.7422 0.2795 -0.6091
vn -0.2787 0.2795 0.9188
vn -0.2787 0.2795 -0.9188
vn 0.6789 0.2795 -0.6789
vn -0.1873 0.2795 0.9417
vn -0.3674 0.2795 -0.8871
vn 0.6091 0.2795 -0.7422
vn -0.0941 0.2795 0.9555
vn -0.4526 0.2795 -0.8468
vn 0.5334 0.2795 -0.7983
vn -0.0000 0.2795 0.9602
vn -0.5334 0.2795 -0.7983
vn 0.4526 0.2795 -0.8468
vn 0.0941 0.2795 0.9555
vn -0.6091 0.2795 -0.7422
vn 0.3674 0.2795 -0.8871
vn 0.1873 0.2795 0.9417
vn -0.6789 0.2795 -0.6789
vn 0.2787 0.2795 -0.9188
vn 0.2787 0.2795 0.9188
vn -0.7422 0.2795 -0.6091
vn 0.1873 0.2795 -0.9417
vn 0.3674 0.2795 0.8871
vn -0.7983 0.2795 -0.5334
vn 0.0941 0.2795 -0.9555
vn 0.4526 0.2795 0.8468
vn -0.8468 0.2795 -0.4526
vn 0.5334 0.2795 0.7983
vn -0.8871 0.2795 -0.3674
vn 0.6091 0.2795 0.7422
vn -0.9188 0.2795 -0.2787
vn 0.6789 0.2795 0.6789
vn -0.9417 0.2795 -0.1873
vn -0.0000 1.0000 -0.0000
vn -0.0000 0.3011 0.9536
vn 0.0935 0.3011 0.9490
vn -0.5298 0.3011 -0.7929
vn -0.6050 0.3011 -0.7371
vn 0.4495 0.3011 -0.8410
vn 0.3649 0.3011 -0.8810
vn 0.1860 0.3011 0.9353
vn -0.6743 0.3011 -0.6743
vn 0.2768 0.3011 -0.9125
vn 0.2768 0.3011 0.9125
vn -0.7371 0.3011 -0.6050
vn 0.1860 0.3011 -0.9353
vn 0.3649 0.3011 0.8810
vn -0.7929 0.3011 -0.5298
vn 0.0935 0.3011 -0.9490
vn 0.4495 0.3011 0.8410
vn -0.8410 0.3011 -0.4495
vn -0.0000 0.3011 -0.9536
vn 0.5298 0.3011 0.7929
vn -0.8810 0.3011 -0.3649
vn 0.6050 0.3011 0.7371
vn -0.9125 0.3011 -0.2768
vn 0.6743 0.3011 0.6743
vn -0.9353 0.3011 -0.1860
vn 0.7371 0.3011 0.6050
vn -0.9490 0.3011 -0.0935
vn 0.7929 0.3011 0.5298
vn -0.9536 0.3011 -0.0000
vn 0.8410 0.3011 0.4495
vn -0.9490 0.3011 0.0935
vn 0.8810 0.3011 0.3649
vn -0.9353 0.3011 0.1860
vn 0.9125 0.3011 0.2768
vn -0.9125 0.3011 0.2768
vn 0.9353 0.3011 0.1860
vn -0.8810 0.3011 0.3649
vn 0.9490 0.3011 0.0935
vn -0.8410 0.3011 0.4495
vn 0.9536 0.3011 -0.0000
vn -0.7929 0.3011 0.5298
vn 0.9490 0.3011 -0.0935
vn -0.7371 0.3011 0.6050
vn 0.9353 0.3011 -0.1860
vn -0.6743 0.3011 0.6743
vn 0.9125 0.3011 -0.2768
vn -0.6050 0.3011 0.7371
vn 0.8810 0.3011 -0.3649
vn -0.5298 0.3011 0.7929
vn 0.8410 0.3011 -0.4495
vn -0.4495 0.3011 0.8410
vn -0.0935 0.3011 -0.9490
vn 0.7929 0.3011 -0.5298
vn -0.3649 0.3011 0.8810
vn -0.1860 0.3011 -0.9353
vn 0.7371 0.3011 -0.6050
vn -0.2768 0.3011 0.9125
vn -0.2768 0.3011 -0.9125
vn 0.6743 0.3011 -0.6743
vn -0.1860 0.3011 0.9353
vn -0.3649 0.3011 -0.8810
vn 0.6050 0.3011 -0.7371
vn -0.0935 0.3011 0.9490
vn -0.4495 0.3011 -0.8410
vn 0.5298 0.3011 -0.7929
vn 0.5831 0.7757 0.2415
vn 0.5566 0.7757 0.2975
vn -0.6281 0.7757 0.0619
vn -0.6190 0.7757 0.1231
vn 0.6039 0.7757 0.1832
vn -0.6039 0.7757 0.1832
vn 0.6190 0.7757 0.1231
vn -0.5831 0.7757 0.2415
vn 0.6281 0.7757 0.0619
vn -0.5566 0.7757 0.2975
vn 0.6311 0.7757 -0.0000
vn -0.5248 0.7757 0.3506
vn 0.6281 0.7757 -0.0619
vn -0.4879 0.7757 0.4004
vn 0.6190 0.7757 -0.1231
vn -0.4463 0.7757 0.4463
vn 0.6039 0.7757 -0.1832
vn -0.4004 0.7757 0.4879
vn 0.5831 0.7757 -0.2415
vn -0.3506 0.7757 0.5248
vn 0.5566 0.7757 -0.2975
vn -0.2975 0.7757 0.5566
vn -0.0000 0.7757 -0.6311
vn -0.0619 0.7757 -0.6281
vn 0.5248 0.7757 -0.3506
vn -0.2415 0.7757 0.5831
vn -0.1231 0.7757 -0.6190
vn 0.4879 0.7757 -0.4004
vn -0.1832 0.7757 0.6039
vn -0.1832 0.7757 -0.6039
vn 0.4463 0.7757 -0.4463
vn -0.1231 0.7757 0.6190
vn -0.2415 0.7757 -0.5831
vn 0.4004 0.7757 -0.4879
vn -0.0619 0.7757 0.6281
vn -0.2975 0.7757 -0.5566
vn 0.3506 0.7757 -0.5248
vn -0.0000 0.7757 0.6311
vn -0.3506 0.7757 -0.5248
vn 0.2975 0.7757 -0.5566
vn 0.0619 0.7757 0.6281
vn -0.4004 0.7757 -0.4879
vn 0.2415 0.7757 -0.5831
vn 0.1231 0.7757 0.6190
vn -0.4463 0.7757 -0.4463
vn 0.1832 0.7757 -0.6039
vn 0.1832 0.7757 0.6039
vn -0.4879 0.7757 -0.4004
vn 0.1231 0.7757 -0.6190
vn 0.2415 0.7757 0.5831
vn -0.5248 0.7757 -0.3506
vn 0.0619 0.7757 -0.6281
vn 0.2975 0.7757 0.5566
vn -0.5566 0.7757 -0.2975
vn 0.3506 0.7757 0.5248
vn -0.5831 0.7757 -0.2415
vn 0.4004 0.7757 0.4879
vn -0.6039 0.7757 -0.1832
vn 0.4463 0.7757 0.4463
vn -0.6190 0.7757 -0.1231
vn 0.4879 0.7757 0.4004
vn -0.6281 0.7757 -0.0619
vn 0.5248 0.7757 0.3506
vn -0.6311 0.7757 -0.0000
vn -0.9952 -0.0000 0.0980
vn -0.9808 -0.0000 0.1951
vn 0.7730 -0.0000 -0.6344
vn 0.7071 -0.0000 -0.7071
vn -0.9569 -0.0000 0.2903
vn 0.6344 -0.0000 -0.7730
vn -0.9239 -0.0000 0.3827
vn 0.5556 -0.0000 -0.8315
vn -0.8819 -0.0000 0.4714
vn 0.4714 -0.0000 -0.8819
vn -0.0000 -0.0000 1.0000
vn 0.0980 -0.0000 0.9952
vn -0.8315 -0.0000 0.5556
vn 0.3827 -0.0000 -0.9239
vn 0.1951 -0.0000 0.9808
vn -0.7730 -0.0000 0.6344
vn 0.2903 -0.0000 -0.9569
vn 0.2903 -0.0000 0.9569
vn -0.7071 -0.0000 0.7071
vn 0.1951 -0.0000 -0.9808
vn 0.3827 -0.0000 0.9239
vn -0.6344 -0.0000 0.7730
vn 0.0980 -0.0000 -0.9952
vn 0.4714 -0.0000 0.8819
vn -0.5556 -0.0000 0.8315
vn -0.0000 -0.0000 -1.0000
vn 0.5556 -0.0000 0.8315
vn -0.4714 -0.0000 0.8819
vn -0.0980 -0.0000 -0.9952
vn 0.6344 -0.0000 0.7730
vn -0.3827 -0.0000 0.9239
vn -0.1951 -0.0000 -0.9808
vn 0.7071 -0.0000 0.7071
vn -0.2903 -0.0000 0.9569
vn -0.2903 -0.0000 -0.9569
vn 0.7730 -0.0000 0.6344
vn -0.1951 -0.0000 0.9808
vn -0.3827 -0.0000 -0.9239
vn 0.8315 -0.0000 0.5556
vn -0.0980 -0.0000 0.9952
vn -0.4714 -0.0000 -0.8819
vn 0.8819 -0.0000 0.4714
vn -0.5556 -0.0000 -0.8315
vn 0.9239 -0.0000 0.3827
vn -0.6344 -0.0000 -0.7730
vn 0.9569 -0.0000 0.2903
vn -0.7071 -0.0000 -0.7071
vn 0.9808 -0.0000 0.1951
vn -0.7730 -0.0000 -0.6344
vn 0.9952 -0.0000 0.0980
vn -0.8315 -0.0000 -0.5556
vn 1.0000 -0.0000 -0.0000
vn -0.8819 -0.0000 -0.4714
vn 0.9952 -0.0000 -0.0980
vn -0.9239 -0.0000 -0.3827
vn 0.9808 -0.0000 -0.1951
vn -0.9569 -0.0000 -0.2903
vn 0.9569 -0.0000 -0.2903
vn -0.9808 -0.0000 -0.1951
vn 0.9239 -0.0000 -0.3827
vn -0.9952 -0.0000 -0.0980
vn 0.8819 -0.0000 -0.4714
vn -1.0000 -0.0000 -0.0000
vn 0.8315 -0.0000 -0.5556
vt 0.000000 0.000000
s 1
usemtl Material.001
f 51/1/1 52/1/2 116/1/2
f 25/1/3 26/1/4 90/1/4
f 52/1/2 53/1/5 117/1/5
f 27/1/6 91/1/6 90/1/4
f 53/1/5 54/1/7 118/1/7
f 27/1/6 28/1/8 92/1/8
f 54/1/7 55/1/9 119/1/9
f 28/1/8 29/1/10 93/1/10
f 56/1/11 120/1/11 119/1/9
f 30/1/12 94/1/12 93/1/10
f 56/1/11 57/1/13 121/1/13
f 30/1/12 31/1/14 95/1/14
f 57/1/13 58/1/15 122/1/15
f 31/1/14 32/1/16 96/1/16
f 59/1/17 123/1/17 122/1/15
f 32/1/16 33/1/18 97/1/18
f 59/1/17 60/1/19 124/1/19
f 33/1/18 34/1/20 98/1/20
f 60/1/19 61/1/21 125/1/21
f 35/1/22 99/1/22 98/1/20
f 62/1/23 126/1/23 125/1/21
f 35/1/22 36/1/24 100/1/24
f 62/1/23 63/1/25 127/1/25
f 36/1/24 37/1/26 101/1/26
f 11/1/27 75/1/27 74/1/28
f 63/1/25 64/1/29 128/1/29
f 37/1/26 38/1/30 102/1/30
f 11/1/27 12/1/31 76/1/31
f 64/1/29 65/1/32 129/1/32
f 38/1/30 39/1/33 103/1/33
f 12/1/31 13/1/34 77/1/34
f 65/1/32 66/1/35 130/1/35
f 40/1/36 104/1/36 103/1/33
f 14/1/37 78/1/37 77/1/34
f 67/1/38 131/1/38 130/1/35
f 40/1/36 41/1/39 105/1/39
f 14/1/37 15/1/40 79/1/40
f 67/1/38 68/1/41 132/1/41
f 41/1/39 42/1/42 106/1/42
f 15/1/40 16/1/43 80/1/43
f 68/1/41 69/1/44 133/1/44
f 43/1/45 107/1/45 106/1/42
f 16/1/43 17/1/46 81/1/46
f 69/1/44 70/1/47 134/1/47
f 43/1/45 44/1/48 108/1/48
f 17/1/46 18/1/49 82/1/49
f 70/1/47 71/1/50 135/1/50
f 44/1/48 45/1/51 109/1/51
f 19/1/52 83/1/52 82/1/49
f 72/1/53 136/1/53 135/1/50
f 46/1/54 110/1/54 109/1/51
f 19/1/52 20/1/55 84/1/55
f 72/1/53 73/1/56 137/1/56
f 46/1/54 47/1/57 111/1/57
f 20/1/55 21/1/58 85/1/58
f 73/1/56 10/1/28 74/1/28
f 47/1/57 48/1/59 112/1/59
f 21/1/58 22/1/60 86/1/60
f 48/1/59 49/1/61 113/1/61
f 22/1/60 23/1/62 87/1/62
f 49/1/61 50/1/63 114/1/63
f 24/1/64 88/1/64 87/1/62
f 51/1/1 115/1/1 114/1/63
f 24/1/64 25/1/3 89/1/3
f 104/1/65 168/1/65 167/1/65
f 78/1/65 142/1/65 141/1/65
f 130/1/65 131/1/65 195/1/65
f 104/1/65 105/1/65 169/1/65
f 78/1/65 79/1/65 143/1/65
f 132/1/65 196/1/65 195/1/65
f 105/1/65 106/1/65 170/1/65
f 79/1/65 80/1/65 144/1/65
f 132/1/65 133/1/65 197/1/65
f 107/1/65 171/1/65 170/1/65
f 80/1/65 81/1/65 145/1/65
f 134/1/65 198/1/65 197/1/65
f 107/1/65 108/1/65 172/1/65
f 82/1/65 146/1/65 145/1/65
f 134/1/65 135/1/65 199/1/65
f 108/1/65 109/1/65 173/1/65
f 82/1/65 83/1/65 147/1/65
f 136/1/65 200/1/65 199/1/65
f 110/1/65 174/1/65 173/1/65
f 84/1/65 148/1/65 147/1/65
f 136/1/65 137/1/65 201/1/65
f 110/1/65 111/1/65 175/1/65
f 84/1/65 85/1/65 149/1/65
f 137/1/65 74/1/65 138/1/65
f 111/1/65 112/1/65 176/1/65
f 86/1/65 150/1/65 149/1/65
f 112/1/65 113/1/65 177/1/65
f 86/1/65 87/1/65 151/1/65
f 114/1/65 178/1/65 177/1/65
f 88/1/65 152/1/65 151/1/65
f 114/1/65 115/1/65 179/1/65
f 88/1/65 89/1/65 153/1/65
f 116/1/65 180/1/65 179/1/65
f 89/1/65 90/1/65 154/1/65
f 116/1/65 117/1/65 181/1/65
f 91/1/65 155/1/65 154/1/65
f 118/1/65 182/1/65 181/1/65
f 92/1/65 156/1/65 155/1/65
f 118/1/65 119/1/65 183/1/65
f 92/1/65 93/1/65 157/1/65
f 120/1/65 184/1/65 183/1/65
f 94/1/65 158/1/65 157/1/65
f 120/1/65 121/1/65 185/1/65
f 94/1/65 95/1/65 159/1/65
f 121/1/65 122/1/65 186/1/65
f 95/1/65 96/1/65 160/1/65
f 123/1/65 187/1/65 186/1/65
f 96/1/65 97/1/65 161/1/65
f 123/1/65 124/1/65 188/1/65
f 98/1/65 162/1/65 161/1/65
f 124/1/65 125/1/65 189/1/65
f 98/1/65 99/1/65 163/1/65
f 126/1/65 190/1/65 189/1/65
f 100/1/65 164/1/65 163/1/65
f 126/1/65 127/1/65 191/1/65
f 100/1/65 101/1/65 165/1/65
f 75/1/65 139/1/65 138/1/65
f 127/1/65 128/1/65 192/1/65
f 102/1/65 166/1/65 165/1/65
f 76/1/65 140/1/65 139/1/65
f 128/1/65 129/1/65 193/1/65
f 102/1/65 103/1/65 167/1/65
f 76/1/65 77/1/65 141/1/65
f 130/1/65 194/1/65 193/1/65
f 170/1/66 171/1/67 235/1/67
f 144/1/68 145/1/69 209/1/69
f 197/1/70 198/1/71 262/1/71
f 171/1/67 172/1/72 236/1/72
f 145/1/69 146/1/73 210/1/73
f 198/1/71 199/1/74 263/1/74
f 172/1/72 173/1/75 237/1/75
f 146/1/73 147/1/76 211/1/76
f 199/1/74 200/1/77 264/1/77
f 174/1/78 238/1/78 237/1/75
f 147/1/76 148/1/79 212/1/79
f 200/1/77 201/1/80 265/1/80
f 174/1/78 175/1/81 239/1/81
f 148/1/79 149/1/82 213/1/82
f 201/1/80 138/1/83 202/1/83
f 175/1/81 176/1/84 240/1/84
f 149/1/82 150/1/85 214/1/85
f 176/1/84 177/1/86 241/1/86
f 150/1/85 151/1/87 215/1/87
f 177/1/86 178/1/88 242/1/88
f 151/1/87 152/1/89 216/1/89
f 179/1/90 243/1/90 242/1/88
f 152/1/89 153/1/91 217/1/91
f 179/1/90 180/1/92 244/1/92
f 154/1/93 218/1/93 217/1/91
f 180/1/92 181/1/94 245/1/94
f 154/1/93 155/1/95 219/1/95
f 181/1/94 182/1/96 246/1/96
f 155/1/95 156/1/97 220/1/97
f 182/1/96 183/1/98 247/1/98
f 156/1/97 157/1/99 221/1/99
f 184/1/100 248/1/100 247/1/98
f 158/1/101 222/1/101 221/1/99
f 184/1/100 185/1/102 249/1/102
f 158/1/101 159/1/103 223/1/103
f 185/1/102 186/1/104 250/1/104
f 159/1/103 160/1/105 224/1/105
f 186/1/104 187/1/106 251/1/106
f 160/1/105 161/1/107 225/1/107
f 188/1/108 252/1/108 251/1/106
f 161/1/107 162/1/109 226/1/109
f 188/1/108 189/1/110 253/1/110
f 163/1/111 227/1/111 226/1/109
f 190/1/112 254/1/112 253/1/110
f 163/1/111 164/1/113 228/1/113
f 190/1/112 191/1/114 255/1/114
f 164/1/113 165/1/115 229/1/115
f 138/1/83 139/1/116 203/1/116
f 191/1/114 192/1/117 256/1/117
f 165/1/115 166/1/118 230/1/118
f 139/1/116 140/1/119 204/1/119
f 192/1/117 193/1/120 257/1/120
f 166/1/118 167/1/121 231/1/121
f 140/1/119 141/1/122 205/1/122
f 193/1/120 194/1/123 258/1/123
f 168/1/124 232/1/124 231/1/121
f 142/1/125 206/1/125 205/1/122
f 194/1/123 195/1/126 259/1/126
f 168/1/124 169/1/127 233/1/127
f 142/1/125 143/1/128 207/1/128
f 195/1/126 196/1/129 260/1/129
f 170/1/66 234/1/66 233/1/127
f 143/1/128 144/1/68 208/1/68
f 196/1/129 197/1/70 261/1/70
f 246/1/130 310/1/130 309/1/131
f 219/1/132 220/1/133 284/1/133
f 246/1/130 247/1/134 311/1/134
f 221/1/135 285/1/135 284/1/133
f 247/1/134 248/1/136 312/1/136
f 222/1/137 286/1/137 285/1/135
f 248/1/136 249/1/138 313/1/138
f 222/1/137 223/1/139 287/1/139
f 249/1/138 250/1/140 314/1/140
f 223/1/139 224/1/141 288/1/141
f 250/1/140 251/1/142 315/1/142
f 225/1/143 289/1/143 288/1/141
f 252/1/144 316/1/144 315/1/142
f 225/1/143 226/1/145 290/1/145
f 252/1/144 253/1/146 317/1/146
f 227/1/147 291/1/147 290/1/145
f 254/1/148 318/1/148 317/1/146
f 227/1/147 228/1/149 292/1/149
f 254/1/148 255/1/150 319/1/150
f 229/1/151 293/1/151 292/1/149
f 202/1/152 203/1/153 267/1/153
f 255/1/150 256/1/154 320/1/154
f 230/1/155 294/1/155 293/1/151
f 203/1/153 204/1/156 268/1/156
f 256/1/154 257/1/157 321/1/157
f 230/1/155 231/1/158 295/1/158
f 205/1/159 269/1/159 268/1/156
f 257/1/157 258/1/160 322/1/160
f 231/1/158 232/1/161 296/1/161
f 206/1/162 270/1/162 269/1/159
f 259/1/163 323/1/163 322/1/160
f 232/1/161 233/1/164 297/1/164
f 206/1/162 207/1/165 271/1/165
f 259/1/163 260/1/166 324/1/166
f 233/1/164 234/1/167 298/1/167
f 207/1/165 208/1/168 272/1/168
f 260/1/166 261/1/169 325/1/169
f 234/1/167 235/1/170 299/1/170
f 209/1/171 273/1/171 272/1/168
f 262/1/172 326/1/172 325/1/169
f 235/1/170 236/1/173 300/1/173
f 209/1/171 210/1/174 274/1/174
f 262/1/172 263/1/175 327/1/175
f 236/1/173 237/1/176 301/1/176
f 211/1/177 275/1/177 274/1/174
f 264/1/178 328/1/178 327/1/175
f 238/1/179 302/1/179 301/1/176
f 211/1/177 212/1/180 276/1/180
f 264/1/178 265/1/181 329/1/181
f 238/1/179 239/1/182 303/1/182
f 212/1/180 213/1/183 277/1/183
f 265/1/181 202/1/152 266/1/152
f 239/1/182 240/1/184 304/1/184
f 214/1/185 278/1/185 277/1/183
f 240/1/184 241/1/186 305/1/186
f 214/1/185 215/1/187 279/1/187
f 241/1/186 242/1/188 306/1/188
f 216/1/189 280/1/189 279/1/187
f 243/1/190 307/1/190 306/1/188
f 216/1/189 217/1/191 281/1/191
f 243/1/190 244/1/192 308/1/192
f 217/1/191 218/1/193 282/1/193
f 245/1/131 309/1/131 308/1/192
f 218/1/193 219/1/132 283/1/132
f 312/1/65 313/1/65 377/1/65
f 286/1/65 287/1/65 351/1/65
f 313/1/65 314/1/65 378/1/65
f 287/1/65 288/1/65 352/1/65
f 314/1/65 315/1/65 379/1/65
f 288/1/65 289/1/65 353/1/65
f 315/1/65 316/1/65 380/1/65
f 289/1/65 290/1/65 354/1/65
f 316/1/65 317/1/65 381/1/65
f 291/1/65 355/1/65 354/1/65
f 318/1/65 382/1/65 381/1/65
f 292/1/65 356/1/65 355/1/65
f 318/1/65 319/1/65 383/1/65
f 293/1/65 357/1/65 356/1/65
f 266/1/65 267/1/65 331/1/65
f 319/1/65 320/1/65 384/1/65
f 293/1/65 294/1/65 358/1/65
f 268/1/65 332/1/65 331/1/65
f 320/1/65 321/1/65 385/1/65
f 294/1/65 295/1/65 359/1/65
f 268/1/65 269/1/65 333/1/65
f 321/1/65 322/1/65 386/1/65
f 296/1/65 360/1/65 359/1/65
f 270/1/65 334/1/65 333/1/65
f 323/1/65 387/1/65 386/1/65
f 296/1/65 297/1/65 361/1/65
f 270/1/65 271/1/65 335/1/65
f 324/1/65 388/1/65 387/1/65
f 297/1/65 298/1/65 362/1/65
f 271/1/65 272/1/65 336/1/65
f 325/1/65 389/1/65 388/1/65
f 298/1/65 299/1/65 363/1/65
f 272/1/65 273/1/65 337/1/65
f 326/1/65 390/1/65 389/1/65
f 299/1/65 300/1/65 364/1/65
f 273/1/65 274/1/65 338/1/65
f 326/1/65 327/1/65 391/1/65
f 300/1/65 301/1/65 365/1/65
f 275/1/65 339/1/65 338/1/65
f 328/1/65 392/1/65 391/1/65
f 302/1/65 366/1/65 365/1/65
f 276/1/65 340/1/65 339/1/65
f 328/1/65 329/1/65 393/1/65
f 302/1/65 303/1/65 367/1/65
f 277/1/65 341/1/65 340/1/65
f 329/1/65 266/1/65 330/1/65
f 303/1/65 304/1/65 368/1/65
f 277/1/65 278/1/65 342/1/65
f 304/1/65 305/1/65 369/1/65
f 278/1/65 279/1/65 343/1/65
f 305/1/65 306/1/65 370/1/65
f 280/1/65 344/1/65 343/1/65
f 307/1/65 371/1/65 370/1/65
f 280/1/65 281/1/65 345/1/65
f 308/1/65 372/1/65 371/1/65
f 281/1/65 282/1/65 346/1/65
f 309/1/65 373/1/65 372/1/65
f 282/1/65 283/1/65 347/1/65
f 310/1/65 374/1/65 373/1/65
f 284/1/65 348/1/65 347/1/65
f 310/1/65 311/1/65 375/1/65
f 284/1/65 285/1/65 349/1/65
f 312/1/65 376/1/65 375/1/65
f 286/1/65 350/1/65 349/1/65
f 379/1/194 380/1/195 444/1/195
f 353/1/196 354/1/197 418/1/197
f 380/1/195 381/1/198 445/1/198
f 354/1/197 355/1/199 419/1/199
f 381/1/198 382/1/200 446/1/200
f 355/1/199 356/1/201 420/1/201
f 382/1/200 383/1/202 447/1/202
f 356/1/201 357/1/203 421/1/203
f 330/1/204 331/1/205 395/1/205
f 383/1/202 384/1/206 448/1/206
f 357/1/203 358/1/207 422/1/207
f 331/1/205 332/1/208 396/1/208
f 384/1/206 385/1/209 449/1/209
f 358/1/207 359/1/210 423/1/210
f 332/1/208 333/1/211 397/1/211
f 385/1/209 386/1/212 450/1/212
f 359/1/210 360/1/213 424/1/213
f 333/1/211 334/1/214 398/1/214
f 386/1/212 387/1/215 451/1/215
f 360/1/213 361/1/216 425/1/216
f 334/1/214 335/1/217 399/1/217
f 387/1/215 388/1/218 452/1/218
f 361/1/216 362/1/219 426/1/219
f 335/1/217 336/1/220 400/1/220
f 388/1/218 389/1/221 453/1/221
f 362/1/219 363/1/222 427/1/222
f 336/1/220 337/1/223 401/1/223
f 389/1/221 390/1/224 454/1/224
f 363/1/222 364/1/225 428/1/225
f 337/1/223 338/1/226 402/1/226
f 390/1/224 391/1/227 455/1/227
f 364/1/225 365/1/228 429/1/228
f 338/1/226 339/1/229 403/1/229
f 391/1/227 392/1/230 456/1/230
f 365/1/228 366/1/231 430/1/231
f 339/1/229 340/1/232 404/1/232
f 392/1/230 393/1/233 457/1/233
f 366/1/231 367/1/234 431/1/234
f 340/1/232 341/1/235 405/1/235
f 393/1/233 330/1/204 394/1/204
f 367/1/234 368/1/236 432/1/236
f 341/1/235 342/1/237 406/1/237
f 368/1/236 369/1/238 433/1/238
f 342/1/237 343/1/239 407/1/239
f 369/1/238 370/1/240 434/1/240
f 343/1/239 344/1/241 408/1/241
f 370/1/240 371/1/242 435/1/242
f 344/1/241 345/1/243 409/1/243
f 371/1/242 372/1/244 436/1/244
f 345/1/243 346/1/245 410/1/245
f 372/1/244 373/1/246 437/1/246
f 346/1/245 347/1/247 411/1/247
f 373/1/246 374/1/248 438/1/248
f 347/1/247 348/1/249 412/1/249
f 374/1/248 375/1/250 439/1/250
f 348/1/249 349/1/251 413/1/251
f 375/1/250 376/1/252 440/1/252
f 349/1/251 350/1/253 414/1/253
f 376/1/252 377/1/254 441/1/254
f 350/1/253 351/1/255 415/1/255
f 377/1/254 378/1/256 442/1/256
f 351/1/255 352/1/257 416/1/257
f 378/1/256 379/1/194 443/1/194
f 352/1/257 353/1/196 417/1/196
f 428/1/65 396/1/65 412/1/65
f 51/1/1 116/1/2 115/1/1
f 25/1/3 90/1/4 89/1/3
f 52/1/2 117/1/5 116/1/2
f 27/1/6 90/1/4 26/1/4
f 53/1/5 118/1/7 117/1/5
f 27/1/6 92/1/8 91/1/6
f 54/1/7 119/1/9 118/1/7
f 28/1/8 93/1/10 92/1/8
f 56/1/11 119/1/9 55/1/9
f 30/1/12 93/1/10 29/1/10
f 56/1/11 121/1/13 120/1/11
f 30/1/12 95/1/14 94/1/12
f 57/1/13 122/1/15 121/1/13
f 31/1/14 96/1/16 95/1/14
f 59/1/17 122/1/15 58/1/15
f 32/1/16 97/1/18 96/1/16
f 59/1/17 124/1/19 123/1/17
f 33/1/18 98/1/20 97/1/18
f 60/1/19 125/1/21 124/1/19
f 35/1/22 98/1/20 34/1/20
f 62/1/23 125/1/21 61/1/21
f 35/1/22 100/1/24 99/1/22
f 62/1/23 127/1/25 126/1/23
f 36/1/24 101/1/26 100/1/24
f 11/1/27 74/1/28 10/1/28
f 63/1/25 128/1/29 127/1/25
f 37/1/26 102/1/30 101/1/26
f 11/1/27 76/1/31 75/1/27
f 64/1/29 129/1/32 128/1/29
f 38/1/30 103/1/33 102/1/30
f 12/1/31 77/1/34 76/1/31
f 65/1/32 130/1/35 129/1/32
f 40/1/36 103/1/33 39/1/33
f 14/1/37 77/1/34 13/1/34
f 67/1/38 130/1/35 66/1/35
f 40/1/36 105/1/39 104/1/36
f 14/1/37 79/1/40 78/1/37
f 67/1/38 132/1/41 131/1/38
f 41/1/39 106/1/42 105/1/39
f 15/1/40 80/1/43 79/1/40
f 68/1/41 133/1/44 132/1/41
f 43/1/45 106/1/42 42/1/42
f 16/1/43 81/1/46 80/1/43
f 69/1/44 134/1/47 133/1/44
f 43/1/45 108/1/48 107/1/45
f 17/1/46 82/1/49 81/1/46
f 70/1/47 135/1/50 134/1/47
f 44/1/48 109/1/51 108/1/48
f 19/1/52 82/1/49 18/1/49
f 72/1/53 135/1/50 71/1/50
f 46/1/54 109/1/51 45/1/51
f 19/1/52 84/1/55 83/1/52
f 72/1/53 137/1/56 136/1/53
f 46/1/54 111/1/57 110/1/54
f 20/1/55 85/1/58 84/1/55
f 73/1/56 74/1/28 137/1/56
f 47/1/57 112/1/59 111/1/57
f 21/1/58 86/1/60 85/1/58
f 48/1/59 113/1/61 112/1/59
f 22/1/60 87/1/62 86/1/60
f 49/1/61 114/1/63 113/1/61
f 24/1/64 87/1/62 23/1/62
f 51/1/1 114/1/63 50/1/63
f 24/1/64 89/1/3 88/1/64
f 104/1/65 167/1/65 103/1/65
f 78/1/65 141/1/65 77/1/65
f 130/1/65 195/1/65 194/1/65
f 104/1/65 169/1/65 168/1/65
f 78/1/65 143/1/65 142/1/65
f 132/1/65 195/1/65 131/1/65
f 105/1/65 170/1/65 169/1/65
f 79/1/65 144/1/65 143/1/65
f 132/1/65 197/1/65 196/1/65
f 107/1/65 170/1/65 106/1/65
f 80/1/65 145/1/65 144/1/65
f 134/1/65 197/1/65 133/1/65
f 107/1/65 172/1/65 171/1/65
f 82/1/65 145/1/65 81/1/65
f 134/1/65 199/1/65 198/1/65
f 108/1/65 173/1/65 172/1/65
f 82/1/65 147/1/65 146/1/65
f 136/1/65 199/1/65 135/1/65
f 110/1/65 173/1/65 109/1/65
f 84/1/65 147/1/65 83/1/65
f 136/1/65 201/1/65 200/1/65
f 110/1/65 175/1/65 174/1/65
f 84/1/65 149/1/65 148/1/65
f 137/1/65 138/1/65 201/1/65
f 111/1/65 176/1/65 175/1/65
f 86/1/65 149/1/65 85/1/65
f 112/1/65 177/1/65 176/1/65
f 86/1/65 151/1/65 150/1/65
f 114/1/65 177/1/65 113/1/65
f 88/1/65 151/1/65 87/1/65
f 114/1/65 179/1/65 178/1/65
f 88/1/65 153/1/65 152/1/65
f 116/1/65 179/1/65 115/1/65
f 89/1/65 154/1/65 153/1/65
f 116/1/65 181/1/65 180/1/65
f 91/1/65 154/1/65 90/1/65
f 118/1/65 181/1/65 117/1/65
f 92/1/65 155/1/65 91/1/65
f 118/1/65 183/1/65 182/1/65
f 92/1/65 157/1/65 156/1/65
f 120/1/65 183/1/65 119/1/65
f 94/1/65 157/1/65 93/1/65
f 120/1/65 185/1/65 184/1/65
f 94/1/65 159/1/65 158/1/65
f 121/1/65 186/1/65 185/1/65
f 95/1/65 160/1/65 159/1/65
f 123/1/65 186/1/65 122/1/65
f 96/1/65 161/1/65 160/1/65
f 123/1/65 188/1/65 187/1/65
f 98/1/65 161/1/65 97/1/65
f 124/1/65 189/1/65 188/1/65
f 98/1/65 163/1/65 162/1/65
f 126/1/65 189/1/65 125/1/65
f 100/1/65 163/1/65 99/1/65
f 126/1/65 191/1/65 190/1/65
f 100/1/65 165/1/65 164/1/65
f 75/1/65 138/1/65 74/1/65
f 127/1/65 192/1/65 191/1/65
f 102/1/65 165/1/65 101/1/65
f 76/1/65 139/1/65 75/1/65
f 128/1/65 193/1/65 192/1/65
f 102/1/65 167/1/65 166/1/65
f 76/1/65 141/1/65 140/1/65
f 130/1/65 193/1/65 129/1/65
f 170/1/66 235/1/67 234/1/66
f 144/1/68 209/1/69 208/1/68
f 197/1/70 262/1/71 261/1/70
f 171/1/67 236/1/72 235/1/67
f 145/1/69 210/1/73 209/1/69
f 198/1/71 263/1/74 262/1/71
f 172/1/72 237/1/75 236/1/72
f 146/1/73 211/1/76 210/1/73
f 199/1/74 264/1/77 263/1/74
f 174/1/78 237/1/75 173/1/75
f 147/1/76 212/1/79 211/1/76
f 200/1/77 265/1/80 264/1/77
f 174/1/78 239/1/81 238/1/78
f 148/1/79 213/1/82 212/1/79
f 201/1/80 202/1/83 265/1/80
f 175/1/81 240/1/84 239/1/81
f 149/1/82 214/1/85 213/1/82
f 176/1/84 241/1/86 240/1/84
f 150/1/85 215/1/87 214/1/85
f 177/1/86 242/1/88 241/1/86
f 151/1/87 216/1/89 215/1/87
f 179/1/90 242/1/88 178/1/88
f 152/1/89 217/1/91 216/1/89
f 179/1/90 244/1/92 243/1/90
f 154/1/93 217/1/91 153/1/91
f 180/1/92 245/1/94 244/1/92
f 154/1/93 219/1/95 218/1/93
f 181/1/94 246/1/96 245/1/94
f 155/1/95 220/1/97 219/1/95
f 182/1/96 247/1/98 246/1/96
f 156/1/97 221/1/99 220/1/97
f 184/1/100 247/1/98 183/1/98
f 158/1/101 221/1/99 157/1/99
f 184/1/100 249/1/102 248/1/100
f 158/1/101 223/1/103 222/1/101
f 185/1/102 250/1/104 249/1/102
f 159/1/103 224/1/105 223/1/103
f 186/1/104 251/1/106 250/1/104
f 160/1/105 225/1/107 224/1/105
f 188/1/108 251/1/106 187/1/106
f 161/1/107 226/1/109 225/1/107
f 188/1/108 253/1/110 252/1/108
f 163/1/111 226/1/109 162/1/109
f 190/1/112 253/1/110 189/1/110
f 163/1/111 228/1/113 227/1/111
f 190/1/112 255/1/114 254/1/112
f 164/1/113 229/1/115 228/1/113
f 138/1/83 203/1/116 202/1/83
f 191/1/114 256/1/117 255/1/114
f 165/1/115 230/1/118 229/1/115
f 139/1/116 204/1/119 203/1/116
f 192/1/117 257/1/120 256/1/117
f 166/1/118 231/1/121 230/1/118
f 140/1/119 205/1/122 204/1/119
f 193/1/120 258/1/123 257/1/120
f 168/1/124 231/1/121 167/1/121
f 142/1/125 205/1/122 141/1/122
f 194/1/123 259/1/126 258/1/123
f 168/1/124 233/1/127 232/1/124
f 142/1/125 207/1/128 206/1/125
f 195/1/126 260/1/129 259/1/126
f 170/1/66 233/1/127 169/1/127
f 143/1/128 208/1/68 207/1/128
f 196/1/129 261/1/70 260/1/129
f 246/1/130 309/1/131 245/1/131
f 219/1/132 284/1/133 283/1/132
f 246/1/130 311/1/134 310/1/130
f 221/1/135 284/1/133 220/1/133
f 247/1/134 312/1/136 311/1/134
f 222/1/137 285/1/135 221/1/135
f 248/1/136 313/1/138 312/1/136
f 222/1/137 287/1/139 286/1/137
f 249/1/138 314/1/140 313/1/138
f 223/1/139 288/1/141 287/1/139
f 250/1/140 315/1/142 314/1/140
f 225/1/143 288/1/141 224/1/141
f 252/1/144 315/1/142 251/1/142
f 225/1/143 290/1/145 289/1/143
f 252/1/144 317/1/146 316/1/144
f 227/1/147 290/1/145 226/1/145
f 254/1/148 317/1/146 253/1/146
f 227/1/147 292/1/149 291/1/147
f 254/1/148 319/1/150 318/1/148
f 229/1/151 292/1/149 228/1/149
f 202/1/152 267/1/153 266/1/152
f 255/1/150 320/1/154 319/1/150
f 230/1/155 293/1/151 229/1/151
f 203/1/153 268/1/156 267/1/153
f 256/1/154 321/1/157 320/1/154
f 230/1/155 295/1/158 294/1/155
f 205/1/159 268/1/156 204/1/156
f 257/1/157 322/1/160 321/1/157
f 231/1/158 296/1/161 295/1/158
f 206/1/162 269/1/159 205/1/159
f 259/1/163 322/1/160 258/1/160
f 232/1/161 297/1/164 296/1/161
f 206/1/162 271/1/165 270/1/162
f 259/1/163 324/1/166 323/1/163
f 233/1/164 298/1/167 297/1/164
f 207/1/165 272/1/168 271/1/165
f 260/1/166 325/1/169 324/1/166
f 234/1/167 299/1/170 298/1/167
f 209/1/171 272/1/168 208/1/168
f 262/1/172 325/1/169 261/1/169
f 235/1/170 300/1/173 299/1/170
f 209/1/171 274/1/174 273/1/171
f 262/1/172 327/1/175 326/1/172
f 236/1/173 301/1/176 300/1/173
f 211/1/177 274/1/174 210/1/174
f 264/1/178 327/1/175 263/1/175
f 238/1/179 301/1/176 237/1/176
f 211/1/177 276/1/180 275/1/177
f 264/1/178 329/1/181 328/1/178
f 238/1/179 303/1/182 302/1/179
f 212/1/180 277/1/183 276/1/180
f 265/1/181 266/1/152 329/1/181
f 239/1/182 304/1/184 303/1/182
f 214/1/185 277/1/183 213/1/183
f 240/1/184 305/1/186 304/1/184
f 214/1/185 279/1/187 278/1/185
f 241/1/186 306/1/188 305/1/186
f 216/1/189 279/1/187 215/1/187
f 243/1/190 306/1/188 242/1/188
f 216/1/189 281/1/191 280/1/189
f 243/1/190 308/1/192 307/1/190
f 217/1/191 282/1/193 281/1/191
f 245/1/131 308/1/192 244/1/192
f 218/1/193 283/1/132 282/1/193
f 312/1/65 377/1/65 376/1/65
f 286/1/65 351/1/65 350/1/65
f 313/1/65 378/1/65 377/1/65
f 287/1/65 352/1/65 351/1/65
f 314/1/65 379/1/65 378/1/65
f 288/1/65 353/1/65 352/1/65
f 315/1/65 380/1/65 379/1/65
f 289/1/65 354/1/65 353/1/65
f 316/1/65 381/1/65 380/1/65
f 291/1/65 354/1/65 290/1/65
f 318/1/65 381/1/65 317/1/65
f 292/1/65 355/1/65 291/1/65
f 318/1/65 383/1/65 382/1/65
f 293/1/65 356/1/65 292/1/65
f 266/1/65 331/1/65 330/1/65
f 319/1/65 384/1/65 383/1/65
f 293/1/65 358/1/65 357/1/65
f 268/1/65 331/1/65 267/1/65
f 320/1/65 385/1/65 384/1/65
f 294/1/65 359/1/65 358/1/65
f 268/1/65 333/1/65 332/1/65
f 321/1/65 386/1/65 385/1/65
f 296/1/65 359/1/65 295/1/65
f 270/1/65 333/1/65 269/1/65
f 323/1/65 386/1/65 322/1/65
f 296/1/65 361/1/65 360/1/65
f 270/1/65 335/1/65 334/1/65
f 324/1/65 387/1/65 323/1/65
f 297/1/65 362/1/65 361/1/65
f 271/1/65 336/1/65 335/1/65
f 325/1/65 388/1/65 324/1/65
f 298/1/65 363/1/65 362/1/65
f 272/1/65 337/1/65 336/1/65
f 326/1/65 389/1/65 325/1/65
f 299/1/65 364/1/65 363/1/65
f 273/1/65 338/1/65 337/1/65
f 326/1/65 391/1/65 390/1/65
f 300/1/65 365/1/65 364/1/65
f 275/1/65 338/1/65 274/1/65
f 328/1/65 391/1/65 327/1/65
f 302/1/65 365/1/65 301/1/65
f 276/1/65 339/1/65 275/1/65
f 328/1/65 393/1/65 392/1/65
f 302/1/65 367/1/65 366/1/65
f 277/1/65 340/1/65 276/1/65
f 329/1/65 330/1/65 393/1/65
f 303/1/65 368/1/65 367/1/65
f 277/1/65 342/1/65 341/1/65
f 304/1/65 369/1/65 368/1/65
f 278/1/65 343/1/65 342/1/65
f 305/1/65 370/1/65 369/1/65
f 280/1/65 343/1/65 279/1/65
f 307/1/65 370/1/65 306/1/65
f 280/1/65 345/1/65 344/1/65
f 308/1/65 371/1/65 307/1/65
f 281/1/65 346/1/65 345/1/65
f 309/1/65 372/1/65 308/1/65
f 282/1/65 347/1/65 346/1/65
f 310/1/65 373/1/65 309/1/65
f 284/1/65 347/1/65 283/1/65
f 310/1/65 375/1/65 374/1/65
f 284/1/65 349/1/65 348/1/65
f 312/1/65 375/1/65 311/1/65
f 286/1/65 349/1/65 285/1/65
f 379/1/194 444/1/195 443/1/194
f 353/1/196 418/1/197 417/1/196
f 380/1/195 445/1/198 444/1/195
f 354/1/197 419/1/199 418/1/197
f 381/1/198 446/1/200 445/1/198
f 355/1/199 420/1/201 419/1/199
f 382/1/200 447/1/202 446/1/200
f 356/1/201 421/1/203 420/1/201
f 330/1/204 395/1/205 394/1/204
f 383/1/202 448/1/206 447/1/202
f 357/1/203 422/1/207 421/1/203
f 331/1/205 396/1/208 395/1/205
f 384/1/206 449/1/209 448/1/206
f 358/1/207 423/1/210 422/1/207
f 332/1/208 397/1/211 396/1/208
f 385/1/209 450/1/212 449/1/209
f 359/1/210 424/1/213 423/1/210
f 333/1/211 398/1/214 397/1/211
f 386/1/212 451/1/215 450/1/212
f 360/1/213 425/1/216 424/1/213
f 334/1/214 399/1/217 398/1/214
f 387/1/215 452/1/218 451/1/215
f 361/1/216 426/1/219 425/1/216
f 335/1/217 400/1/220 399/1/217
f 388/1/218 453/1/221 452/1/218
f 362/1/219 427/1/222 426/1/219
f 336/1/220 401/1/223 400/1/220
f 389/1/221 454/1/224 453/1/221
f 363/1/222 428/1/225 427/1/222
f 337/1/223 402/1/226 401/1/223
f 390/1/224 455/1/227 454/1/224
f 364/1/225 429/1/228 428/1/225
f 338/1/226 403/1/229 402/1/226
f 391/1/227 456/1/230 455/1/227
f 365/1/228 430/1/231 429/1/228
f 339/1/229 404/1/232 403/1/229
f 392/1/230 457/1/233 456/1/230
f 366/1/231 431/1/234 430/1/231
f 340/1/232 405/1/235 404/1/232
f 393/1/233 394/1/204 457/1/233
f 367/1/234 432/1/236 431/1/234
f 341/1/235 406/1/237 405/1/235
f 368/1/236 433/1/238 432/1/236
f 342/1/237 407/1/239 406/1/237
f 369/1/238 434/1/240 433/1/238
f 343/1/239 408/1/241 407/1/239
f 370/1/240 435/1/242 434/1/240
f 344/1/241 409/1/243 408/1/241
f 371/1/242 436/1/244 435/1/242
f 345/1/243 410/1/245 409/1/243
f 372/1/244 437/1/246 436/1/244
f 346/1/245 411/1/247 410/1/245
f 373/1/246 438/1/248 437/1/246
f 347/1/247 412/1/249 411/1/247
f 374/1/248 439/1/250 438/1/248
f 348/1/249 413/1/251 412/1/249
f 375/1/250 440/1/252 439/1/250
f 349/1/251 414/1/253 413/1/251
f 376/1/252 441/1/254 440/1/252
f 350/1/253 415/1/255 414/1/253
f 377/1/254 442/1/256 441/1/254
f 351/1/255 416/1/257 415/1/255
f 378/1/256 443/1/194 442/1/256
f 352/1/257 417/1/196 416/1/257
f 396/1/65 394/1/65 395/1/65
f 394/1/65 456/1/65 457/1/65
f 456/1/65 454/1/65 455/1/65
f 454/1/65 452/1/65 453/1/65
f 452/1/65 450/1/65 451/1/65
f 450/1/65 448/1/65 449/1/65
f 448/1/65 446/1/65 447/1/65
f 446/1/65 444/1/65 445/1/65
f 444/1/65 442/1/65 443/1/65
f 442/1/65 440/1/65 441/1/65
f 440/1/65 438/1/65 439/1/65
f 438/1/65 436/1/65 437/1/65
f 436/1/65 434/1/65 435/1/65
f 434/1/65 432/1/65 433/1/65
f 432/1/65 430/1/65 431/1/65
f 430/1/65 428/1/65 429/1/65
f 428/1/65 426/1/65 427/1/65
f 426/1/65 424/1/65 425/1/65
f 424/1/65 422/1/65 423/1/65
f 422/1/65 420/1/65 421/1/65
f 420/1/65 418/1/65 419/1/65
f 418/1/65 416/1/65 417/1/65
f 416/1/65 414/1/65 415/1/65
f 414/1/65 412/1/65 413/1/65
f 412/1/65 410/1/65 411/1/65
f 410/1/65 408/1/65 409/1/65
f 408/1/65 406/1/65 407/1/65
f 406/1/65 404/1/65 405/1/65
f 404/1/65 402/1/65 403/1/65
f 402/1/65 400/1/65 401/1/65
f 400/1/65 398/1/65 399/1/65
f 398/1/65 396/1/65 397/1/65
f 396/1/65 456/1/65 394/1/65
f 456/1/65 452/1/65 454/1/65
f 452/1/65 448/1/65 450/1/65
f 448/1/65 444/1/65 446/1/65
f 444/1/65 440/1/65 442/1/65
f 440/1/65 436/1/65 438/1/65
f 436/1/65 432/1/65 434/1/65
f 432/1/65 428/1/65 430/1/65
f 428/1/65 424/1/65 426/1/65
f 424/1/65 420/1/65 422/1/65
f 420/1/65 416/1/65 418/1/65
f 416/1/65 412/1/65 414/1/65
f 412/1/65 408/1/65 410/1/65
f 408/1/65 404/1/65 406/1/65
f 404/1/65 400/1/65 402/1/65
f 400/1/65 396/1/65 398/1/65
f 396/1/65 452/1/65 456/1/65
f 452/1/65 444/1/65 448/1/65
f 444/1/65 436/1/65 440/1/65
f 436/1/65 428/1/65 432/1/65
f 428/1/65 420/1/65 424/1/65
f 420/1/65 412/1/65 416/1/65
f 412/1/65 404/1/65 408/1/65
f 404/1/65 396/1/65 400/1/65
f 396/1/65 444/1/65 452/1/65
f 444/1/65 428/1/65 436/1/65
f 428/1/65 412/1/65 420/1/65
f 412/1/65 396/1/65 404/1/65
f 396/1/65 428/1/65 444/1/65
l 6 7
l 458 3
l 3 4
l 4 5
l 1 2
l 8 9
